<?xml version="1.0" encoding="UTF-8"?><svg xmlns="http://www.w3.org/2000/svg" viewBox="0 0 2551.36 2547.56"><g id="a"><rect x="28.76" y="46.14" width="2482.36" height="2482.36" rx="370.12" ry="370.12" style="stroke:#00ff04; stroke-miterlimit:10;"/></g><g id="b"><rect x="211.76" y="229.32" width="1029.21" height="1029.21" rx="319.77" ry="319.77" style="fill:#f60; stroke:#00ff04; stroke-miterlimit:10;"/></g><g id="c"><rect x="1299.91" y="203.71" width="1029.21" height="1029.21" rx="319.77" ry="319.77" style="fill:red; stroke:#00ff04; stroke-miterlimit:10;"/></g><g id="d"><rect x="1320.21" y="1326.32" width="1029.21" height="1029.21" rx="319.77" ry="319.77" style="fill:#0c0; stroke:#00ff04; stroke-miterlimit:10;"/></g><g id="e"><rect x="211.76" y="1326.32" width="1029.21" height="1029.21" rx="319.77" ry="319.77" style="fill:#30f; stroke:#00ff04; stroke-miterlimit:10;"/></g><g id="f"><rect x="255.13" y="271.01" width="2021.41" height="2021.41" rx="395.98" ry="395.98" transform="translate(1277.07 -519.67) rotate(45)" style="fill:#27bf00; stroke:#00ff04; stroke-miterlimit:10;"/></g><g id="g"><g><path d="M868.18,1431.77c0,46.77-12.06,88.78-36.16,126.03-24.11,37.27-59.39,66.44-105.83,87.53s-101.5,31.64-165.19,31.64c-76.36,0-139.34-14.41-188.95-43.25-35.16-20.73-63.72-48.41-85.69-83.03s-32.95-68.28-32.95-100.98c0-18.97,6.58-35.23,19.77-48.77s29.97-20.3,50.36-20.3c16.52,0,30.48,5.28,41.92,15.81,11.42,10.55,21.17,26.19,29.27,46.91,9.84,24.61,20.47,45.17,31.89,61.69s27.5,30.12,48.25,40.84c20.73,10.72,47.97,16.08,81.72,16.08,46.39,0,84.09-10.8,113.09-32.42,29-21.61,43.5-48.58,43.5-80.92,0-25.66-7.83-46.47-23.47-62.47-15.64-15.98-35.84-28.19-60.62-36.62s-57.92-17.39-99.39-26.89c-55.55-13-102.03-28.19-139.47-45.58-37.44-17.38-67.12-41.09-89.09-71.12s-32.95-67.34-32.95-111.95,11.59-80.25,34.81-113.27,56.81-58.39,100.78-76.14c43.97-17.73,95.67-26.61,155.12-26.61,47.48,0,88.55,5.89,123.2,17.64,34.64,11.77,63.39,27.39,86.27,46.88,22.86,19.5,39.56,39.95,50.12,61.36,10.55,21.42,15.83,42.31,15.83,62.67,0,18.62-6.61,35.39-19.83,50.31s-29.7,22.38-49.44,22.38c-17.98,0-31.64-4.45-40.98-13.39-9.34-8.92-19.48-23.53-30.41-43.84-14.06-29.23-30.94-52.05-50.62-68.42s-51.31-24.58-94.89-24.58c-40.42,0-73.02,8.88-97.8,26.62s-37.17,39.09-37.17,64.05c0,15.47,4.22,28.81,12.66,40.06s20.03,20.91,34.8,28.98c14.75,8.09,29.69,14.42,44.81,18.98,15.11,4.58,40.06,11.25,74.88,20.03,43.66,10.19,83.19,21.44,118.58,33.73,35.38,12.31,65.48,27.25,90.31,44.81,24.83,17.58,44.2,39.81,58.11,66.69s20.86,59.83,20.86,98.83Z" style="fill:#fff;"/><path d="M1510.33,1011.97h-352.8v190h324.84c23.91,0,41.73,5.36,53.52,16.08s17.67,24.84,17.67,42.39-5.81,31.88-17.41,42.94-29.53,16.59-53.78,16.59h-324.84v220h364.92c24.59,0,43.14,5.7,55.62,17.08,12.48,11.39,18.73,26.55,18.73,45.45s-6.25,33.02-18.73,44.39c-12.48,11.39-31.03,17.08-55.62,17.08h-425.72c-34.19,0-58.77-7.55-73.73-22.67-14.98-15.11-22.47-39.55-22.47-73.3V986.94c0-22.5,3.34-40.86,10.05-55.09,6.69-14.23,17.17-24.61,31.45-31.11,14.27-6.5,32.5-9.77,54.7-9.77h413.59c24.95,0,43.5,5.55,55.62,16.64s18.2,25.62,18.2,43.59-6.08,33.03-18.2,44.12-30.67,16.64-55.62,16.64Z" style="fill:#fff;"/><path d="M2308.88,1431.77c0,46.77-12.06,88.78-36.16,126.03-24.11,37.27-59.39,66.44-105.83,87.53s-101.5,31.64-165.19,31.64c-76.36,0-139.34-14.41-188.95-43.25-35.16-20.73-63.72-48.41-85.69-83.03s-32.95-68.28-32.95-100.98c0-18.97,6.58-35.23,19.77-48.77s29.97-20.3,50.36-20.3c16.52,0,30.48,5.28,41.92,15.81,11.42,10.55,21.17,26.19,29.27,46.91,9.84,24.61,20.47,45.17,31.89,61.69s27.5,30.12,48.25,40.84c20.73,10.72,47.97,16.08,81.72,16.08,46.39,0,84.09-10.8,113.09-32.42,29-21.61,43.5-48.58,43.5-80.92,0-25.66-7.83-46.47-23.47-62.47-15.64-15.98-35.84-28.19-60.62-36.62s-57.92-17.39-99.39-26.89c-55.55-13-102.03-28.19-139.47-45.58-37.44-17.38-67.12-41.09-89.09-71.12s-32.95-67.34-32.95-111.95,11.59-80.25,34.81-113.27,56.81-58.39,100.78-76.14c43.97-17.73,95.67-26.61,155.12-26.61,47.48,0,88.55,5.89,123.2,17.64,34.64,11.77,63.39,27.39,86.27,46.88,22.86,19.5,39.56,39.95,50.12,61.36,10.55,21.42,15.83,42.31,15.83,62.67,0,18.62-6.61,35.39-19.83,50.31s-29.7,22.38-49.44,22.38c-17.98,0-31.64-4.45-40.98-13.39-9.34-8.92-19.48-23.53-30.41-43.84-14.06-29.23-30.94-52.05-50.62-68.42s-51.31-24.58-94.89-24.58c-40.42,0-73.02,8.88-97.8,26.62s-37.17,39.09-37.17,64.05c0,15.47,4.22,28.81,12.66,40.06s20.03,20.91,34.8,28.98c14.75,8.09,29.69,14.42,44.81,18.98,15.11,4.58,40.06,11.25,74.88,20.03,43.66,10.19,83.19,21.44,118.58,33.73,35.38,12.31,65.48,27.25,90.31,44.81,24.83,17.58,44.2,39.81,58.11,66.69s20.86,59.83,20.86,98.83Z" style="fill:#fff;"/></g></g></svg>